<?xml version="1.0" encoding="UTF-8" standalone="no"?>
<!-- Generator: Adobe Illustrator 16.0.2, SVG Export Plug-In . SVG Version: 6.00 Build 0)  -->

<svg
   version="1.1"
   id="Fubon"
   x="0px"
   y="0px"
   width="214.24001"
   height="34.051922"
   viewBox="0 0 214.24001 34.051922"
   enable-background="new 0 0 288 46"
   xml:space="preserve"
   sodipodi:docname="Taipei_Fubon_Bank_logo.svg"
   inkscape:version="1.1.1 (3bf5ae0d25, 2021-09-20)"
   xmlns:inkscape="http://www.inkscape.org/namespaces/inkscape"
   xmlns:sodipodi="http://sodipodi.sourceforge.net/DTD/sodipodi-0.dtd"
   xmlns="http://www.w3.org/2000/svg"
   xmlns:svg="http://www.w3.org/2000/svg"
   xmlns:rdf="http://www.w3.org/1999/02/22-rdf-syntax-ns#"
   xmlns:cc="http://creativecommons.org/ns#"
   xmlns:dc="http://purl.org/dc/elements/1.1/"><defs
   id="defs44" /><sodipodi:namedview
   id="namedview42"
   pagecolor="#505050"
   bordercolor="#ffffff"
   borderopacity="1"
   inkscape:pageshadow="0"
   inkscape:pageopacity="0"
   inkscape:pagecheckerboard="1"
   showgrid="false"
   fit-margin-top="0"
   fit-margin-left="0"
   fit-margin-right="0"
   fit-margin-bottom="0"
   inkscape:zoom="4.9375"
   inkscape:cx="108.1519"
   inkscape:cy="18.43038"
   inkscape:window-width="3440"
   inkscape:window-height="1411"
   inkscape:window-x="1431"
   inkscape:window-y="-9"
   inkscape:window-maximized="1"
   inkscape:current-layer="Fubon" />
<title
   id="title2">Artboard 1</title>
<rect
   x="200.53999"
   y="10.101923"
   fill="#212121"
   width="12.721"
   height="2.95"
   id="rect4" />
<path
   fill="#212121"
   d="m 214.24,19.762924 v -3 h -15 v 3.06 h 8.8 v 9.43 c -0.018,0.372 -0.121,0.733 -0.3,1.06 -0.19,0.23 -0.34,1 -3,0.931 l 1.33,2.489 c 1.567,0.415 3.23,-0.157 4.21,-1.449 0.454,-0.7 0.717,-1.507 0.76,-2.34 v -10.18 h 3.2 z"
   id="path6" />
<path
   fill="#212121"
   d="m 193.51,24.031924 c -0.574,0.535 -1.189,1.023 -1.84,1.46 l -2.4,-1.851 c 2.793,-1.927 5.073,-4.509 6.64,-7.52 l 2.7,1.25 c -0.71,1.22 -1.41,2.3 -2.08,3.24 v 13.25 h -3.02 z m 1.37,-15.0000005 2.82,1.0700005 c -1.264,2.896 -3.156,5.475 -5.54,7.55 l -2.55,-1.74 c 2.308,-1.836 4.122,-4.218 5.279,-6.9300005"
   id="path8" />
<path
   fill="#212121"
   d="m 121.54,19.150924 v 3.91 h -15.48 v -5.37 h 13.62 c 2,0 1.869,1.459 1.869,1.459 m -3,0.443 h -9.68 v 1.649 h 9.68 z"
   id="path10" />
<path
   fill="#212121"
   d="m 103.16,33.671924 v -9.489 h 19.21 c 0.329,0.023 0.649,0.115 0.94,0.27 0.717,0.33 1.19,1.031 1.229,1.82 v 7.399 h -3.229 v -0.65 h -14.94 v 0.65 z m 18.15,-7.3 h -6 v 1.29 h 6 z m -8.94,0 h -6 v 1.29 h 6 z m 8.94,3.3 h -6 v 1.29 h 6 z m -8.94,0 h -6 v 1.29 h 6 z"
   id="path12" />
<rect
   x="106.03999"
   y="14.641924"
   fill="#212121"
   width="15.5"
   height="2.02"
   id="rect14" />
<path
   fill="#212121"
   d="m 101.98,17.171924 v -6.22 h 10.271 V 9.3719235 h 3.1 v 1.5100005 h 8.1 c 0,0 2.07,0.16 2.07,1.89 v 4.4 h -2.82 v -3.56 h -17.74 v 3.56 z"
   id="path16" />
<path
   fill="#212121"
   d="m 152.61,18.471924 2,-6.49 c 0.188,-0.954 -0.434,-1.879 -1.387,-2.0670005 -0.109,-0.021 -0.221,-0.033 -0.334,-0.033 H 144.68 V 33.751924 h 3 v -4.319 c 0,0 0.89,1.33 1.369,2 0.828,0.002 1.644,-0.204 2.371,-0.601 1.938,-0.979 3.271,-2.849 3.569,-5 0.193,-2.669 -0.66,-5.309 -2.379,-7.36 m -0.68,7.6 c -0.451,1.177 -1.399,2.096 -2.59,2.51 -0.566,0.181 -1.172,0.204 -1.75,0.069 v -15.819 h 3.819 c -0.569,2.06 -1.29,4.21 -1.93,6.24 0.2,0.38 0.64,0.72 0.88,1.13 1.109,1.71 2.189,3.67 1.58,5.87"
   id="path18" />
<path
   fill="#212121"
   d="m 143.61,20.461924 v -3.09 h -4.29 v -2.34 h 4.181 v -3 H 139.32 V 9.2819235 h -3.21 v 2.7900005 h -4.891 v 3 h 4.881 v 2.3 h -4.881 v 3 h 4.891 v 2.3 h -4.82 v 3.091 h 4.68 c -0.202,2.177 -1.246,4.189 -2.909,5.609 l 1.771,2.359 c 4.35,-2.43 4.559,-8 4.559,-8 h 4.221 v -3.059 h -4.279 v -2.21 z"
   id="path20" />
<path
   fill="#212121"
   d="m 44.49,33.581924 v -11.38 h 18.57 c 0.325,0.023 0.642,0.115 0.93,0.27 0.713,0.339 1.182,1.042 1.22,1.83 v 9.28 H 61.7 v -0.649 H 48.05 v 0.649 z m 3.57,-3.649 H 61.7 v -4.74 H 48.05 Z"
   id="path22" />
<path
   fill="#212121"
   d="m 48.71,20.371924 h -5.23 v -3.23 l 6,-7.5300005 h 3.91 l -6.27,7.7600005 h 14.25 c 0.52,0 0.71,-0.33 0.5,-1 l -2.86,-4.49 h 3.72 l 3.21,5.09 c 0.92,2.267 0.327,3.4 -1.78,3.4 z"
   id="path24" />
<path
   fill="#212121"
   d="m 77.94,10.051924 h 3.25 v 20.62 c 0.175,1.191 -0.648,2.299 -1.84,2.474 -0.195,0.029 -0.394,0.031 -0.59,0.006 H 71 v -3.16 h 6.32 c 0.42,0 0.62,-0.21 0.62,-0.63 v -9 H 71 v -3.19 h 6.93 z"
   id="path26" />
<path
   fill="#212121"
   d="m 88.1,29.371924 v -6.33 c 2.649,-1.881 5.114,-4.012 7.36,-6.36 l -2.06,-2.31 c -1.638,1.728 -3.41,3.323 -5.3,4.77 v -9 h -3.26 v 20.53 c -0.175,1.191 0.648,2.299 1.84,2.474 0.195,0.029 0.394,0.031 0.59,0.006 h 7.63 v -3.16 h -6.18 c -0.301,0.042 -0.579,-0.167 -0.621,-0.468 -0.008,-0.055 -0.007,-0.109 10e-4,-0.162"
   id="path28" />
<path
   fill="#212121"
   d="m 185.82,31.721924 c -1.597,-1.055 -3.017,-2.354 -4.21,-3.85 1.373,-1.02 2.648,-2.165 3.811,-3.42 l 0.17,-0.189 -1.73,-1.931 -0.21,0.24 c -1.025,1.079 -2.128,2.081 -3.3,3 -0.373,-1.087 -0.608,-2.216 -0.7,-3.36 h 3.78 c 0.484,0.035 0.905,-0.33 0.939,-0.815 0.003,-0.042 0.003,-0.083 0,-0.124 v -10.801 c 0.041,-0.457 -0.296,-0.8600005 -0.752,-0.9010005 -0.053,-0.005 -0.105,-0.004 -0.158,0.001 h -10 c -0.451,-0.036 -0.846,0.302 -0.881,0.7530005 -0.004,0.049 -0.004,0.098 0.002,0.147 v 20.42 l -1.75,0.431 0.09,0.28 0.64,2.33 0.26,-0.061 c 2.593,-0.508 5.124,-1.293 7.55,-2.34 l 0.239,-0.16 -0.859,-2.55 -0.281,0.12 c -0.92,0.39 -2,0.779 -3.239,1.17 v -8 h 1.739 c 0.098,3.018 1.184,5.92 3.091,8.26 1.046,1.236 2.237,2.342 3.55,3.29 l 0.18,0.14 2.34,-1.869 z m -4.41,-12.12 h -6.2 v -2.43 h 6.471 v 2.15 c -0.001,0.22 -0.061,0.28 -0.271,0.28 m -6.2,-5 v -2.23 0 -0.17 l 0.2,-0.06 h 6 c 0.171,0 0.21,0 0.22,0.21 v 2.21 z"
   id="path30" />
<path
   fill="#212121"
   d="m 170.91,32.150924 -10,1.871 -0.88,-2.82 4.15,-0.67 v -1.16 c 0,0 -1.9,0.33 -2.131,-0.221 -0.689,-1.449 -1.299,-3 -1.89,-4.579 h 2.8 c 0.221,0.45 1.09,2.409 1.24,2.85 v -4.28 h -4.16 v -2.59 h 4.2 v -1.6 h -2.771 v -2.17 l -0.479,0.42 -1.92,-2.1 c 2.259,-1.511 4.238,-3.402 5.851,-5.5900005 h 1.689 c 1.559,2.2480005 3.576,4.1400005 5.92,5.5500005 l -2.061,2.12 -0.439,-0.43 v 2.19 h -2.82 v 1.59 h 4 v 2.59 h -4 v 3.38 c 0.531,-0.636 1.021,-1.304 1.471,-2 h 2.709 c -0.586,1.292 -1.332,2.504 -2.219,3.61 -0.601,0.406 -1.284,0.672 -2,0.779 v 1.141 l 3.44,-0.66 c 0,0 0.391,1.91 0.38,1.84 m -5.25,-18.47 c -1.069,1.375 -2.302,2.614 -3.67,3.69 h 7.54 c -1.383,-1.122 -2.674,-2.353 -3.859,-3.68"
   id="path32" />
<g
   id="g4000"
   transform="translate(-35.89,-4.6280765)">
	<g
   id="g3135">
		<path
   id="path3137"
   fill="#19999a"
   d="m 60.5,21.46 v 0 c 0,0 0,0.1 0.29,0.3 2.961,2.088 3.668,6.182 1.58,9.143 -1.251,1.773 -3.299,2.814 -5.47,2.777 v 5 c 6.15,0 11.73,-4.38 11.73,-10.63 0.02,-2.378 -0.727,-4.699 -2.13,-6.62 0.248,-0.314 0.469,-0.648 0.66,-1 0.38,-0.66 0.45,-1.47 0.45,-4.16 V 4.63 H 51.83 v 9.31 h -5 V 19 H 56.97 V 9.87 h 5.67 v 7.92 c 0.032,1.528 -0.794,2.945 -2.14,3.67" />
	</g>
	<g
   id="g3139">
		<path
   id="path3141"
   fill="#1c8ebd"
   d="m 46.85,4.63 h -1.46 c -2.756,-0.054 -5.412,1.031 -7.34,3 -2,2.24 -2.16,4.23 -2.16,7.51 v 23.49 h 16 v -9.2 h 5.07 V 24.26 H 46.81 v 9.28 H 40.99 V 14.1 c 0,0 -0.38,-4.22 4.7,-4.34 L 46.85,9.7 Z" />
	</g>
</g>
<rect
   x="38.57"
   y="3.5519238"
   width="0.19"
   height="0.059999999"
   id="rect39" />
<metadata
   id="metadata861"><rdf:RDF><cc:Work
       rdf:about=""><dc:title>Artboard 1</dc:title></cc:Work></rdf:RDF></metadata></svg>
